<svg xmlns="http://www.w3.org/2000/svg" viewBox="0 0 33.333 44.829">
  <defs>
    <style>
      .cls-1 {
        fill: #c4d7ee;
      }
    </style>
  </defs>
  <path id="noun_1221810_FFFFFF" class="cls-1" d="M54.333,48.93v5.747a1.153,1.153,0,0,1-1.149,1.149H29.046A1.153,1.153,0,0,1,27.9,54.677V47.205A19.116,19.116,0,0,1,21,32.493V14.447A3.448,3.448,0,0,1,24.563,11,3.538,3.538,0,0,1,27.9,14.562V30.539a8.07,8.07,0,0,0,8.046,8.046H36.8a9.2,9.2,0,1,1,6.322,0h.862A10.375,10.375,0,0,1,54.333,48.93Z" transform="translate(-21 -10.997)"/>
</svg>
