<?xml version="1.0" encoding="utf-8"?>
<!-- Generator: Adobe Illustrator 22.1.0, SVG Export Plug-In . SVG Version: 6.00 Build 0)  -->
<svg version="1.1" id="Layer_1" xmlns="http://www.w3.org/2000/svg" xmlns:xlink="http://www.w3.org/1999/xlink" x="0px" y="0px"
	 viewBox="0 0 9.1 44.6" style="enable-background:new 0 0 9.1 44.6;" xml:space="preserve">
<style type="text/css">
	.st0{fill:#C3D7EE;}
</style>
<g id="Group_108" transform="translate(0)">
	<path id="Rectangle_169" class="st0" d="M1,0h7.1c0.6,0,1,0.4,1,1v7.1c0,0.6-0.4,1-1,1H1c-0.6,0-1-0.4-1-1V1C0,0.4,0.4,0,1,0z"/>
	<path id="Rectangle_170" class="st0" d="M1,11.3h7.1c0.6,0,1,0.4,1,1v31.3c0,0.6-0.4,1-1,1H1c-0.6,0-1-0.4-1-1V12.3
		C0,11.8,0.4,11.3,1,11.3z"/>
</g>
</svg>
