<svg xmlns="http://www.w3.org/2000/svg" viewBox="0 0 54 54"><defs><style>.a,.c{fill:none;}.b,.e{fill:#fff;}.b,.c{stroke:#fff;stroke-width:3px;}.b{stroke-linejoin:round;}.c{stroke-linecap:round;}.d,.e{stroke:none;}</style></defs><g transform="translate(978 513) rotate(180)"><g class="a" transform="translate(978 513) rotate(180)"><path class="d" d="M27,0A27,27,0,1,1,0,27,27,27,0,0,1,27,0Z"/><path class="e" d="M 27 3 C 23.75869941711426 3 20.61594009399414 3.634140014648438 17.65903854370117 4.884811401367188 C 14.80149078369141 6.093448638916016 12.23451995849609 7.824348449707031 10.02944183349609 10.02944183349609 C 7.824348449707031 12.23451995849609 6.093448638916016 14.80149078369141 4.884811401367188 17.65903854370117 C 3.634140014648438 20.61594009399414 3 23.75869941711426 3 27 C 3 30.24130058288574 3.634140014648438 33.38405990600586 4.884811401367188 36.34095764160156 C 6.093448638916016 39.19850921630859 7.824348449707031 41.76548004150391 10.02944183349609 43.97055816650391 C 12.23451995849609 46.17565155029297 14.80149078369141 47.90655136108398 17.65903854370117 49.11518859863281 C 20.61594009399414 50.36585998535156 23.75869941711426 51 27 51 C 30.24130058288574 51 33.38405990600586 50.36585998535156 36.34095764160156 49.11518859863281 C 39.19850921630859 47.90655136108398 41.76548004150391 46.17565155029297 43.97055816650391 43.97055816650391 C 46.17565155029297 41.76548004150391 47.90655136108398 39.19850921630859 49.11518859863281 36.34095764160156 C 50.36585998535156 33.38405990600586 51 30.24130058288574 51 27 C 51 23.75869941711426 50.36585998535156 20.61594009399414 49.11518859863281 17.65903854370117 C 47.90655136108398 14.80149078369141 46.17565155029297 12.23451995849609 43.97055816650391 10.02944183349609 C 41.76548004150391 7.824348449707031 39.19850921630859 6.093448638916016 36.34095764160156 4.884811401367188 C 33.38405990600586 3.634140014648438 30.24130058288574 3 27 3 M 27 0 C 41.91168975830078 0 54 12.08831024169922 54 27 C 54 41.91168975830078 41.91168975830078 54 27 54 C 12.08831024169922 54 0 41.91168975830078 0 27 C 0 12.08831024169922 12.08831024169922 0 27 0 Z"/></g><g transform="translate(942.944 474.75)"><path class="b" d="M16.606,0,0,10.8,16.606,21.6Z" transform="translate(16.606 21.955) rotate(180)"/><path class="c" d="M0,0V21.6" transform="translate(17.506)"/></g></g></svg>