<svg id="Layer_1" data-name="Layer 1" xmlns="http://www.w3.org/2000/svg" viewBox="0 0 241.38 52.54"><defs><style>.cls-1{fill:#fff;}</style></defs><title>UCLA Alumni Logo - White - vector</title><path class="cls-1" d="M138.27,39.82v-.35c.31,0,2.45-.28,2.45-1.61,0-.81-1.12-4-2.53-7.72h-9.33c-.7,1.76-1.37,3.33-2,5a9.34,9.34,0,0,0-.74,2.67c0,1.23,1.68,1.54,2.91,1.68v.35h-7.54v-.39a4.59,4.59,0,0,0,2.39-1,16.45,16.45,0,0,0,2.18-3.86c2-4.42,5-11.54,7.23-16.81l-.35-.77A7.11,7.11,0,0,0,136,14.06h.28c2.91,7.79,5.16,13.79,7.37,19.72a36.67,36.67,0,0,0,1.47,3.44,4,4,0,0,0,3.37,2.18v.42Zm-4.6-21.26c-.53,1.26-2.28,5.33-4.49,10.84h8.74C136.34,25.22,134.51,20.66,133.67,18.55Z"/><path class="cls-1" d="M149.39,39.82v-.39c2.14-.14,2.67-.39,2.67-1.12V18.13a.71.71,0,0,0-.35-.74c-.42-.25-1.44-.84-2-1.09V16.1l5-1.65H155v24c0,.95.81.77,2.6.95v.39Z"/><path class="cls-1" d="M170.9,39.92h-.24V36.31l0,0c-1,1.62-3,3.72-5.62,3.72-3,0-4.38-1.89-4.38-5.3V26.13a6.63,6.63,0,0,0-.18-1.72c-.35-.81-1.47-.74-2.32-.81v-.39h5.44V33.43c0,3.05.77,4.53,3.33,4.53,1.93,0,2.88-1.09,3.76-2.17v-10a3.6,3.6,0,0,0-.35-1.72,10.88,10.88,0,0,0-2.63-.46v-.39h5.89V37.08a.71.71,0,0,0,.35.74c.42.25,1.4.67,2,.91v.21Z"/><path class="cls-1" d="M197.36,39.82v-.39c1.26-.07,1.93-.21,1.93-.95V29.54c0-2.7-.84-4.46-3.26-4.46-1.54,0-2.42.91-3.54,2.18V38.59c0,.7,1.09.81,1.89.91v.32h-6.91v-.39c1.26-.07,2.07-.21,2.07-.95v-9c0-2.74-.84-4.42-3.26-4.42-1.54,0-2.32.67-3.54,2V38.56c.18.91,1,.77,1.93.91v.35h-6.81v-.35c1.09-.11,2-.39,2-1.12v-12a.71.71,0,0,0-.35-.74,16.32,16.32,0,0,0-1.58-.81v-.28l4.6-1.65h.21v3.79l.07,0c.95-1.69,3.09-3.83,5.62-3.83,2.21,0,3.68,1.61,4,4.07h.11c.81-1.72,3.12-4.07,5.65-4.07,2.7,0,4.11,2.21,4.11,5.26V38.59c0,.7,1.23.81,2,.91v.32Z"/><path class="cls-1" d="M215.86,39.82v-.39c1.26-.07,2.07-.21,2.07-.95V29.64c0-2.7-.95-4.53-3.37-4.53-1.54,0-2.38.67-3.65,1.93V38.56c.18.91.95.77,1.89.91v.35H206v-.35c1.09-.11,2-.39,2-1.12V26.27a.71.71,0,0,0-.35-.74,16.42,16.42,0,0,0-1.58-.81v-.21l4.6-1.65h.21v3.79l.07,0c1-1.61,3.19-3.83,5.72-3.83,2.7,0,4.21,2.25,4.21,5.4V38.59c0,.7,1.33.81,2.14.91v.32Z"/><path class="cls-1" d="M224.32,39.82v-.35c1.09-.11,2.39-.25,2.39-1.12v-12a.93.93,0,0,0-.35-.88,6.83,6.83,0,0,0-1.68-.81v-.21l4.74-1.54h.21V38.56c.18.91,1.3.77,2.25.91v.35ZM228,19.22a1.93,1.93,0,0,1-1.9-1.89,1.9,1.9,0,0,1,3.79,0A1.89,1.89,0,0,1,228,19.22Z"/><path class="cls-1" d="M0,0V52.53H113.63V0ZM35.95,28.7C35.4,34.58,31.5,39,25.2,39c-4.91,0-8.08-3.18-8.68-7.77a23.45,23.45,0,0,1-.06-2.77l1.32-15h4.91L21.35,28.57c-.29,3.27,1,5.61,4.26,5.61s5.1-2.37,5.4-5.28L32.4,13.45h4.9Zm23.11-7.92a7.25,7.25,0,0,0-6.35-3c-5.22,0-8.08,3.62-8.49,8.21s1.91,8.1,7,8.1a9.4,9.4,0,0,0,7-3.08l-.54,6.1A14.08,14.08,0,0,1,50.8,39c-8.3,0-12.1-6.17-11.5-12.9C39.94,18.94,44.79,13,53.18,13a11.48,11.48,0,0,1,6.44,1.86ZM75.83,38.45H61.32l2.22-25h4.89L66.65,33.8h7c.5,0,2.17,0,2.62-.05C76.25,34,75.83,38.45,75.83,38.45Zm18.42,0-1.18-4H83.63l-1.88,4h-5.2L90,12.31h.34l9.15,26.15Z"/><path class="cls-1" d="M89.48,21.73H89.4A6.12,6.12,0,0,1,89,22.78c-.07.16-3.38,7.48-3.38,7.48h6.18s-1.91-6.33-2.18-7.47A6,6,0,0,1,89.48,21.73Z"/></svg>