<?xml version="1.0" encoding="utf-8"?>
<!-- Generator: Adobe Illustrator 22.1.0, SVG Export Plug-In . SVG Version: 6.00 Build 0)  -->
<svg version="1.1" id="Layer_1" xmlns="http://www.w3.org/2000/svg" xmlns:xlink="http://www.w3.org/1999/xlink" x="0px" y="0px"
	 viewBox="0 0 241.4 52.5" style="enable-background:new 0 0 241.4 52.5;" xml:space="preserve">
<style type="text/css">
	.st0{fill:#8BB8E8;}
</style>
<title>UCLA Alumni Logo - White - vector</title>
<path class="st0" d="M138.3,39.8v-0.3c0.3,0,2.4-0.3,2.4-1.6c0-0.8-1.1-4-2.5-7.7h-9.3c-0.7,1.8-1.4,3.3-2,5
	c-0.4,0.8-0.6,1.7-0.7,2.7c0,1.2,1.7,1.5,2.9,1.7v0.3h-7.5v-0.4c0.9-0.1,1.7-0.4,2.4-1c0.9-1.2,1.6-2.5,2.2-3.9
	c2-4.4,5-11.5,7.2-16.8l-0.4-0.8c1.3-0.6,2.4-1.7,3.1-2.9h0.3c2.9,7.8,5.2,13.8,7.4,19.7c0.4,1.2,0.9,2.3,1.5,3.4
	c0.7,1.3,1.9,2.1,3.4,2.2v0.4L138.3,39.8z M133.7,18.6c-0.5,1.3-2.3,5.3-4.5,10.8h8.7C136.3,25.2,134.5,20.7,133.7,18.6L133.7,18.6z
	"/>
<path class="st0" d="M149.4,39.8v-0.4c2.1-0.1,2.7-0.4,2.7-1.1V18.1c0.1-0.3-0.1-0.6-0.4-0.7c-0.4-0.2-1.4-0.8-2-1.1v-0.2l5-1.6h0.3
	v24c0,1,0.8,0.8,2.6,1v0.4L149.4,39.8z"/>
<path class="st0" d="M170.9,39.9h-0.2v-3.6l0,0c-1,1.6-3,3.7-5.6,3.7c-3,0-4.4-1.9-4.4-5.3v-8.6c0-0.6,0-1.2-0.2-1.7
	c-0.4-0.8-1.5-0.7-2.3-0.8v-0.4h5.4v10.2c0,3,0.8,4.5,3.3,4.5c1.9,0,2.9-1.1,3.8-2.2v-10c0-0.6-0.1-1.2-0.4-1.7
	c-0.9-0.3-1.7-0.4-2.6-0.5v-0.4h5.9v13.9c-0.1,0.3,0.1,0.6,0.4,0.7c0.4,0.2,1.4,0.7,2,0.9v0.2L170.9,39.9z"/>
<path class="st0" d="M197.4,39.8v-0.4c1.3-0.1,1.9-0.2,1.9-1v-8.9c0-2.7-0.8-4.5-3.3-4.5c-1.5,0-2.4,0.9-3.5,2.2v11.3
	c0,0.7,1.1,0.8,1.9,0.9v0.3h-6.9v-0.4c1.3-0.1,2.1-0.2,2.1-1v-9c0-2.7-0.8-4.4-3.3-4.4c-1.5,0-2.3,0.7-3.5,2v11.5
	c0.2,0.9,1,0.8,1.9,0.9v0.3h-6.8v-0.3c1.1-0.1,2-0.4,2-1.1v-12c0.1-0.3-0.1-0.6-0.4-0.7c-0.5-0.3-1-0.6-1.6-0.8v-0.3l4.6-1.6h0.2
	v3.8h0.1c0.9-1.7,3.1-3.8,5.6-3.8c2.2,0,3.7,1.6,4,4.1h0.1c0.8-1.7,3.1-4.1,5.6-4.1c2.7,0,4.1,2.2,4.1,5.3v10.5c0,0.7,1.2,0.8,2,0.9
	v0.3H197.4z"/>
<path class="st0" d="M215.9,39.8v-0.4c1.3-0.1,2.1-0.2,2.1-1v-8.8c0-2.7-0.9-4.5-3.4-4.5c-1.5,0-2.4,0.7-3.6,1.9v11.5
	c0.2,0.9,0.9,0.8,1.9,0.9v0.3H206v-0.3c1.1-0.1,2-0.4,2-1.1V26.3c0.1-0.3-0.1-0.6-0.4-0.7c-0.5-0.3-1-0.6-1.6-0.8v-0.2l4.6-1.6h0.2
	v3.8h0.1c1-1.6,3.2-3.8,5.7-3.8c2.7,0,4.2,2.2,4.2,5.4v10.4c0,0.7,1.3,0.8,2.1,0.9v0.3H215.9z"/>
<path class="st0" d="M224.3,39.8v-0.3c1.1-0.1,2.4-0.2,2.4-1.1v-12c0.1-0.3-0.1-0.7-0.4-0.9c-0.5-0.3-1.1-0.6-1.7-0.8v-0.2l4.7-1.5
	h0.2v15.6c0.2,0.9,1.3,0.8,2.2,0.9v0.3H224.3z M228,19.2c-1,0-1.9-0.9-1.9-1.9c0.1-1,1-1.8,2-1.8c0.9,0.1,1.7,0.8,1.8,1.8
	C229.9,18.4,229,19.2,228,19.2z"/>
<path class="st0" d="M0,0v52.5h113.6V0H0z M36,28.7C35.4,34.6,31.5,39,25.2,39c-4.9,0-8.1-3.2-8.7-7.8c-0.1-0.9-0.1-1.8-0.1-2.8
	l1.3-15h4.9l-1.3,15.1c-0.3,3.3,1,5.6,4.3,5.6s5.1-2.4,5.4-5.3l1.4-15.4h4.9L36,28.7z M59.1,20.8c-1.5-2-3.9-3.2-6.3-3
	c-5.2,0-8.1,3.6-8.5,8.2s1.9,8.1,7,8.1c2.7,0,5.2-1.1,7-3.1l-0.5,6.1c-2.1,1.2-4.5,1.9-6.9,1.9c-8.3,0-12.1-6.2-11.5-12.9
	C39.9,18.9,44.8,13,53.2,13c2.3,0,4.5,0.6,6.4,1.9L59.1,20.8z M75.8,38.5H61.3l2.2-25h4.9l-1.8,20.3h7c0.5,0,2.2,0,2.6,0
	C76.2,34,75.8,38.5,75.8,38.5z M94.2,38.5l-1.2-4h-9.4l-1.9,4h-5.2L90,12.3h0.3l9.2,26.1L94.2,38.5z"/>
<path class="st0" d="M89.5,21.7L89.5,21.7c-0.2,0.4-0.3,0.7-0.5,1.1c-0.1,0.2-3.4,7.5-3.4,7.5h6.2c0,0-1.9-6.3-2.2-7.5
	C89.5,22.4,89.5,22.1,89.5,21.7z"/>
</svg>
