<?xml version="1.0" encoding="utf-8"?>
<!-- Generator: Adobe Illustrator 22.1.0, SVG Export Plug-In . SVG Version: 6.00 Build 0)  -->
<svg version="1.1" id="Art" xmlns="http://www.w3.org/2000/svg" xmlns:xlink="http://www.w3.org/1999/xlink" x="0px" y="0px"
	 viewBox="0 0 181.6 43" style="enable-background:new 0 0 181.6 43;" xml:space="preserve">
<style type="text/css">
	.st0{fill:#C3D7EE;}
</style>
<title>Boxed_BlackType_Alumni</title>
<path class="st0" d="M104.7,12.8h3.6l6.1,17.3h-3.7l-1.2-3.7h-6.2l-1.1,3.7h-3.6L104.7,12.8z M104.2,23.8h4.6l-1.6-5
	c-0.3-0.9-0.7-2.7-0.7-2.7l0,0c0,0-0.4,1.8-0.7,2.7L104.2,23.8z"/>
<path class="st0" d="M115.5,12.8h3.3v17.3h-3.3V12.8z"/>
<path class="st0" d="M128.8,30.2v-1.4h-0.1c-0.8,1.2-2.1,1.9-3.6,1.8c-2.8,0-4.3-1.8-4.3-4.5v-8.3h3.3v7.7c0,1.5,0.6,2.2,2.1,2.2
	c1.4,0,2.5-1.1,2.5-2.5c0-0.1,0-0.2,0-0.3v-7.2h3.3v12.4H128.8z"/>
<path class="st0" d="M134.1,17.7h3.2v1.7h0.1c0.7-1.3,2.1-2,3.6-2c1.5,0,2.9,0.8,3.5,2.2l0,0c0.8-1.3,2.2-2.2,3.7-2.2
	c2.6,0,4.1,1.7,4.1,4.4v8.4h-3.3v-7.8c0-1.4-0.7-2.1-1.9-2.1c-1.4,0-2.2,1.1-2.2,2.7v7.2h-3.3v-7.8c0-1.4-0.7-2.1-1.9-2.1
	s-2.2,1.1-2.2,2.7v7.2h-3.3L134.1,17.7z"/>
<path class="st0" d="M157.5,19.4L157.5,19.4c0.8-1.3,2.3-2.1,3.8-2c2.6,0,4.3,1.9,4.3,4.7v8.1h-3.3v-7.7c0.1-1.1-0.7-2.2-1.8-2.3
	c-0.1,0-0.2,0-0.3,0c-1.4,0-2.6,1.2-2.5,2.7c0,0.1,0,0.1,0,0.2v7h-3.3V17.7h3.2L157.5,19.4z"/>
<path class="st0" d="M167.6,12.8h3.3v3h-3.3V12.8z M167.6,17.7h3.3v12.4h-3.3V17.7z"/>
<g>
	<path class="st0" d="M69.7,18.2L69.7,18.2c-0.1,0.3-0.2,0.6-0.3,0.8l-2.7,5.9h4.9c0,0-1.5-5-1.7-5.9C69.8,18.8,69.8,18.5,69.7,18.2
		z"/>
	<path class="st0" d="M-0.6-0.1v43.2h91V-0.1H-0.6z M28.4,23.7c-0.4,4.6-3.5,8.1-8.4,8.1c-3.5,0.1-6.6-2.6-6.8-6.1h0
		c0-0.7,0-1.5,0-2.2l1-11.8H18l-1.1,11.9c-0.2,2.6,0.8,4.4,3.3,4.4s4-1.9,4.2-4.2l1.1-12.1h3.8L28.4,23.7z M45.8,17.5
		c-1.2-1.6-3-2.5-5-2.3c-4.1,0-6.3,2.8-6.7,6.5c-0.3,3.6,1.5,6.3,5.5,6.3c2.1,0,4.1-0.9,5.5-2.4l-0.4,4.8c-1.6,0.9-3.4,1.5-5.3,1.5
		c-6.5,0-9.5-4.8-9-10.1h-0.1c0.5-5.7,4.3-10.3,10.9-10.3c1.8,0,3.6,0.5,5.1,1.5L45.8,17.5z M59,31.4H47.6l1.8-19.7h3.8l-1.4,16h5.5
		c0.4,0,1.7,0,2.1,0C59.4,27.9,59,31.4,59,31.4z M73.5,31.3l-0.9-3.1h-7.4l-1.5,3.1h-4.1l10.5-20.5h0.3l7.2,20.5H73.5z"/>
</g>
</svg>
