<?xml version="1.0" encoding="utf-8"?>
<!-- Generator: Adobe Illustrator 22.1.0, SVG Export Plug-In . SVG Version: 6.00 Build 0)  -->
<svg version="1.1" id="Capa_1" xmlns="http://www.w3.org/2000/svg" xmlns:xlink="http://www.w3.org/1999/xlink" x="0px" y="0px"
	 viewBox="0 0 612 612" style="enable-background:new 0 0 612 612;" xml:space="preserve">
<style type="text/css">
	.st0{fill:#FFFFFF;}
</style>
<g>
	<g id="cancel">
		<g>
			<path class="st0" d="M306,0C137,0,0,137,0,306s137,306,306,306c169,0,306-137,306-306S475,0,306,0z M306,573.8
				C158.1,573.8,38.2,453.9,38.2,306S158.1,38.2,306,38.2S573.8,158.1,573.8,306S453.9,573.8,306,573.8z M434.4,177.6
				c-7.3-7.3-19.1-7.3-26.4,0l-102,102l-102-102c-7.3-7.3-19.1-7.3-26.4,0s-7.3,19.1,0,26.4l102,102l-102,102
				c-7.3,7.3-7.3,19.1,0,26.4c7.3,7.3,19.1,7.3,26.4,0l102-102l102,102c7.3,7.3,19.1,7.3,26.4,0c7.3-7.3,7.3-19.1,0-26.4l-102-102
				l102-102C441.7,196.7,441.7,184.9,434.4,177.6z"/>
		</g>
	</g>
</g>
</svg>
