<?xml version="1.0" encoding="utf-8"?>
<!-- Generator: Adobe Illustrator 22.1.0, SVG Export Plug-In . SVG Version: 6.00 Build 0)  -->
<svg version="1.1" id="Layer_1" xmlns="http://www.w3.org/2000/svg" xmlns:xlink="http://www.w3.org/1999/xlink" x="0px" y="0px"
	 viewBox="0 0 72 72" style="enable-background:new 0 0 72 72;" xml:space="preserve">
<style type="text/css">
	.st0{fill:#C3D7EE;}
</style>
<path class="st0" d="M54.3,30.5c0,0.6-1.2,1.3-2,1.8c-5,3.1-10,6.4-15,9.6c-0.3,0.2-0.9,0.6-1.3,0.6c-0.5-0.1-14.9-9.3-17.5-10.9
	c-0.4-0.2-0.9-0.5-0.9-1c0-0.6,0.4-0.9,0.9-0.9c0.4,0,14.5,9,15.4,9.5l2.2,1.4c0.7-0.5,1.4-0.9,2.1-1.4c1.5-0.9,14.7-9.5,15.1-9.5
	C54,29.6,54.3,29.9,54.3,30.5z"/>
<path class="st0" d="M0,0v72h72V0H0z M57.7,48.8c0,1.3-1,2.5-2.4,2.5H16.4c-1.4,0-2.4-1.1-2.4-2.5v-25c0-1.5,0.8-2.6,2.4-2.6h38.9
	c1.5,0,2.4,1.1,2.4,2.6C57.7,23.8,57.7,48.8,57.7,48.8z"/>
</svg>
