<?xml version="1.0" encoding="utf-8"?>
<!-- Generator: Adobe Illustrator 22.1.0, SVG Export Plug-In . SVG Version: 6.00 Build 0)  -->
<svg version="1.1" id="Layer_1" xmlns="http://www.w3.org/2000/svg" xmlns:xlink="http://www.w3.org/1999/xlink" x="0px" y="0px"
	 viewBox="0 0 104 104" style="enable-background:new 0 0 104 104;" xml:space="preserve">
<style type="text/css">
	.st0{fill:#8BB8E8;}
</style>
<title>Facebook white</title>
<path class="st0" d="M84.5,0h-65C8.7,0,0,8.7,0,19.5v65C0,95.3,8.7,104,19.5,104h65c10.8,0,19.5-8.7,19.5-19.5v-65
	C104,8.7,95.3,0,84.5,0z M81.9,56h-9.7v36H55.9V56h-6.3V43.9h6.3v-7.7C55.9,26,60.1,20,72,20h12.1v12.1h-7c-4.7,0-5,1.7-5,5v6.8
	h11.1L81.9,56z"/>
</svg>
