<?xml version="1.0" encoding="utf-8"?>
<!-- Generator: Adobe Illustrator 22.1.0, SVG Export Plug-In . SVG Version: 6.00 Build 0)  -->
<svg version="1.1" id="Layer_1" xmlns="http://www.w3.org/2000/svg" xmlns:xlink="http://www.w3.org/1999/xlink" x="0px" y="0px"
	 viewBox="0 0 102.4 83.2" style="enable-background:new 0 0 102.4 83.2;" xml:space="preserve">
<style type="text/css">
	.st0{fill:#8BB8E8;}
</style>
<title>Twitter-white</title>
<path class="st0" d="M102.4,9.8c-3.8,1.7-7.9,2.8-12.1,3.3c4.4-2.6,7.7-6.7,9.2-11.6C95.4,4,90.9,5.7,86.2,6.6
	c-7.9-8.5-21.2-8.9-29.7-1c-5.5,5.1-7.8,12.8-6.1,20.1C33.5,24.9,17.8,17,7.1,3.8c-5.6,9.6-2.7,21.8,6.5,28c-3.3-0.1-6.6-1-9.5-2.6
	v0.3c0,10,7,18.6,16.8,20.6c-1.8,0.5-3.7,0.7-5.5,0.7c-1.3,0-2.7-0.1-4-0.4c2.8,8.6,10.7,14.4,19.7,14.6c-7.4,5.8-16.6,9-26.1,9
	c-1.7,0-3.3-0.1-5-0.3c9.6,6.2,20.8,9.4,32.2,9.4c38.6,0,59.8-32,59.8-59.8c0-0.9,0-1.8-0.1-2.7C96,17.8,99.5,14.1,102.4,9.8"/>
</svg>
