<svg id="Layer_1" data-name="Layer 1" xmlns="http://www.w3.org/2000/svg" viewBox="0 0 102.36 83.18"><defs><style>.cls-1{fill:#fff;}</style></defs><title>Twitter-white</title><path class="cls-1" d="M103.42,22.3a42,42,0,0,1-12.07,3.3A21.1,21.1,0,0,0,100.59,14a42.23,42.23,0,0,1-13.34,5.09A21,21,0,0,0,51.47,38.23,59.67,59.67,0,0,1,8.18,16.29a21,21,0,0,0,6.5,28A20.84,20.84,0,0,1,5.17,41.7V42A21,21,0,0,0,22,62.56a20.91,20.91,0,0,1-5.53.74,20.59,20.59,0,0,1-4-.38A21,21,0,0,0,32.15,77.5a42.1,42.1,0,0,1-26.09,9,41.2,41.2,0,0,1-5-.29,59.38,59.38,0,0,0,32.19,9.43c38.63,0,59.75-32,59.75-59.75,0-.91,0-1.82-.06-2.72A42.28,42.28,0,0,0,103.42,22.3" transform="translate(-1.06 -12.45)"/></svg>