<?xml version="1.0" encoding="utf-8"?>
<!-- Generator: Adobe Illustrator 22.1.0, SVG Export Plug-In . SVG Version: 6.00 Build 0)  -->
<svg version="1.1" id="Layer_1" xmlns="http://www.w3.org/2000/svg" xmlns:xlink="http://www.w3.org/1999/xlink" x="0px" y="0px"
	 viewBox="0 0 100 100" style="enable-background:new 0 0 100 100;" xml:space="preserve">
<style type="text/css">
	.st0{fill:#8BB8E8;}
</style>
<g id="Page-1">
	<g id="Social-Icons---Squared-Black" transform="translate(-264.000000, -43.000000)">
		<g id="Twitter" transform="translate(264.000000, 43.000000)">
			<path class="st0" d="M0,0v100h100V0H0z M76.5,35.7C77.4,55,63,76.4,37.6,76.4c-7.7,0-14.9-2.3-21-6.2c7.2,0.9,14.5-1.2,20.3-5.7
				c-6-0.1-11-4.1-12.8-9.5c2.1,0.4,4.2,0.3,6.2-0.2c-6.6-1.3-11.1-7.2-11-13.6c1.8,1,4,1.6,6.2,1.7c-6.1-4.1-7.8-12.1-4.2-18.3
				C28.1,33,38.1,38.4,49.5,39c-2-8.6,4.5-16.8,13.3-16.8c3.9,0,7.5,1.7,10,4.3c3.1-0.6,6-1.8,8.7-3.3c-1,3.2-3.2,5.9-6,7.6
				c2.8-0.3,5.4-1.1,7.9-2.2C81.5,31.4,79.2,33.8,76.5,35.7z"/>
		</g>
	</g>
</g>
</svg>
