<?xml version="1.0" encoding="utf-8"?>
<!-- Generator: Adobe Illustrator 22.1.0, SVG Export Plug-In . SVG Version: 6.00 Build 0)  -->
<svg version="1.1" id="Layer_1" xmlns="http://www.w3.org/2000/svg" xmlns:xlink="http://www.w3.org/1999/xlink" x="0px" y="0px"
	 viewBox="0 0 72 72" style="enable-background:new 0 0 72 72;" xml:space="preserve">
<style type="text/css">
	.st0{fill:#FFFFFF;}
</style>
<path class="st0" d="M0,0v72h72V0C72,0,0,0,0,0z M55.1,25.7c0.6,13.9-9.7,29.3-28,29.3c-5.6,0-10.7-1.6-15.1-4.4
	c5.2,0.6,10.4-0.8,14.6-4.1c-4.3-0.1-8-2.9-9.2-6.8c1.5,0.3,3.1,0.2,4.5-0.2c-4.7-1-8-5.2-7.9-9.8c1.3,0.7,2.9,1.2,4.5,1.2
	c-4.4-2.9-5.6-8.7-3-13.2c4.9,6,12.1,9.9,20.3,10.3c-1.4-6.2,3.2-12.1,9.6-12.1c2.8,0,5.4,1.2,7.2,3.1c2.2-0.4,4.3-1.3,6.2-2.4
	c-0.7,2.3-2.3,4.2-4.3,5.5c2-0.2,3.9-0.8,5.7-1.5C58.7,22.6,57,24.3,55.1,25.7z"/>
</svg>
